<?xml version="1.0" encoding="UTF-8" standalone="no"?>
<!DOCTYPE svg PUBLIC "-//W3C//DTD SVG 1.1//EN" "http://www.w3.org/Graphics/SVG/1.1/DTD/svg11.dtd">
<svg width="100%" height="100%" viewBox="0 0 328 88" version="1.1" xmlns="http://www.w3.org/2000/svg" xmlns:xlink="http://www.w3.org/1999/xlink" xml:space="preserve" xmlns:serif="http://www.serif.com/" style="fill-rule:evenodd;clip-rule:evenodd;stroke-linejoin:round;stroke-miterlimit:2;">
    <g id="logo" transform="matrix(1.042014,0,0,1.1,-21.766485,248.6)">
        <rect x="20.889" y="-226" width="314.775" height="80" style="fill:none;"/>
        <g transform="matrix(3.121951,0,0,2.909091,-59.706087,274.282845)">
            <g transform="matrix(0.307398,0,0,0.3125,51.628635,-153.534728)">
                <g transform="matrix(48,0,0,48,0,0)">
                    <path d="M0.384,0.01C0.319,0.01 0.261,-0.005 0.211,-0.034C0.16,-0.064 0.119,-0.106 0.09,-0.162C0.061,-0.217 0.046,-0.285 0.046,-0.363C0.046,-0.443 0.061,-0.51 0.09,-0.566C0.12,-0.622 0.16,-0.664 0.211,-0.693C0.262,-0.723 0.32,-0.737 0.384,-0.737C0.425,-0.737 0.464,-0.732 0.499,-0.72C0.535,-0.708 0.567,-0.692 0.594,-0.669C0.622,-0.647 0.644,-0.62 0.662,-0.588C0.68,-0.556 0.691,-0.52 0.697,-0.479L0.546,-0.479C0.543,-0.499 0.536,-0.516 0.527,-0.532C0.518,-0.548 0.506,-0.561 0.492,-0.572C0.479,-0.583 0.463,-0.591 0.445,-0.597C0.427,-0.602 0.408,-0.605 0.387,-0.605C0.349,-0.605 0.316,-0.596 0.287,-0.577C0.259,-0.558 0.237,-0.53 0.221,-0.494C0.205,-0.458 0.197,-0.415 0.197,-0.363C0.197,-0.311 0.205,-0.267 0.221,-0.231C0.237,-0.195 0.259,-0.168 0.288,-0.15C0.316,-0.132 0.349,-0.123 0.386,-0.123C0.407,-0.123 0.426,-0.125 0.444,-0.131C0.462,-0.137 0.478,-0.145 0.492,-0.156C0.506,-0.167 0.518,-0.18 0.527,-0.196C0.536,-0.211 0.543,-0.229 0.547,-0.249L0.697,-0.249C0.693,-0.215 0.683,-0.183 0.667,-0.152C0.651,-0.121 0.63,-0.093 0.603,-0.069C0.576,-0.045 0.544,-0.025 0.508,-0.011C0.471,0.003 0.43,0.01 0.384,0.01Z" style="fill:url(#_Linear1);fill-rule:nonzero;"/>
                </g>
                <g transform="matrix(48,0,0,48,35.505451,0)">
                    <path d="M0.062,-0L0.062,-0.546L0.204,-0.546L0.204,-0.451L0.21,-0.451C0.22,-0.484 0.237,-0.51 0.26,-0.527C0.284,-0.545 0.311,-0.553 0.342,-0.553C0.349,-0.553 0.357,-0.553 0.366,-0.552C0.375,-0.551 0.382,-0.55 0.389,-0.548L0.389,-0.417C0.383,-0.42 0.373,-0.422 0.361,-0.423C0.348,-0.424 0.337,-0.425 0.326,-0.425C0.303,-0.425 0.283,-0.42 0.266,-0.41C0.248,-0.401 0.234,-0.387 0.224,-0.37C0.214,-0.353 0.209,-0.333 0.209,-0.311L0.209,-0L0.062,-0Z" style="fill:url(#_Linear2);fill-rule:nonzero;"/>
                </g>
                <g transform="matrix(48,0,0,48,55.806484,0)">
                    <path d="M0.059,0.193L0.092,0.083L0.11,0.088C0.13,0.093 0.147,0.094 0.163,0.092C0.178,0.09 0.19,0.083 0.199,0.073C0.209,0.063 0.214,0.049 0.216,0.031L0.22,0.002L0.015,-0.546L0.171,-0.546L0.262,-0.263C0.274,-0.227 0.283,-0.191 0.29,-0.155C0.297,-0.119 0.305,-0.082 0.314,-0.043L0.28,-0.043C0.289,-0.082 0.297,-0.12 0.306,-0.156C0.315,-0.192 0.325,-0.227 0.337,-0.263L0.433,-0.546L0.587,-0.546L0.355,0.064C0.344,0.094 0.329,0.119 0.312,0.141C0.295,0.162 0.273,0.179 0.248,0.19C0.222,0.202 0.191,0.208 0.154,0.208C0.135,0.208 0.117,0.207 0.1,0.204C0.083,0.201 0.069,0.197 0.059,0.193Z" style="fill:url(#_Linear3);fill-rule:nonzero;"/>
                </g>
                <g transform="matrix(48,0,0,48,84.694063,0)">
                    <path d="M0.062,0.204L0.062,-0.546L0.206,-0.546L0.206,-0.454L0.214,-0.454C0.22,-0.469 0.23,-0.483 0.242,-0.499C0.255,-0.514 0.271,-0.527 0.292,-0.537C0.312,-0.548 0.338,-0.553 0.369,-0.553C0.41,-0.553 0.447,-0.542 0.48,-0.521C0.513,-0.501 0.54,-0.469 0.56,-0.428C0.58,-0.386 0.591,-0.334 0.591,-0.272C0.591,-0.211 0.581,-0.16 0.561,-0.118C0.542,-0.077 0.515,-0.045 0.482,-0.023C0.448,-0.002 0.41,0.009 0.368,0.009C0.339,0.009 0.314,0.004 0.293,-0.006C0.273,-0.016 0.256,-0.028 0.243,-0.043C0.23,-0.058 0.22,-0.073 0.214,-0.087L0.209,-0.087L0.209,0.204L0.062,0.204ZM0.323,-0.108C0.349,-0.108 0.37,-0.115 0.388,-0.129C0.405,-0.143 0.418,-0.163 0.427,-0.187C0.436,-0.212 0.44,-0.241 0.44,-0.272C0.44,-0.304 0.436,-0.333 0.427,-0.357C0.418,-0.382 0.405,-0.401 0.388,-0.415C0.37,-0.428 0.349,-0.435 0.323,-0.435C0.298,-0.435 0.277,-0.429 0.259,-0.415C0.242,-0.402 0.228,-0.383 0.219,-0.359C0.21,-0.334 0.206,-0.306 0.206,-0.272C0.206,-0.24 0.21,-0.211 0.219,-0.186C0.229,-0.162 0.242,-0.143 0.26,-0.129C0.277,-0.115 0.298,-0.108 0.323,-0.108Z" style="fill:url(#_Linear4);fill-rule:nonzero;"/>
                </g>
                <g transform="matrix(48,0,0,48,114.945278,0)">
                    <path d="M0.334,-0.546L0.334,-0.434L0.01,-0.434L0.01,-0.546L0.334,-0.546ZM0.085,-0.676L0.231,-0.676L0.231,-0.16C0.231,-0.142 0.235,-0.13 0.243,-0.121C0.251,-0.113 0.263,-0.109 0.281,-0.109C0.287,-0.109 0.295,-0.11 0.305,-0.111C0.315,-0.112 0.322,-0.114 0.328,-0.115L0.349,-0.005C0.332,-0 0.316,0.003 0.3,0.005C0.284,0.007 0.269,0.008 0.254,0.008C0.199,0.008 0.157,-0.006 0.128,-0.032C0.099,-0.059 0.085,-0.097 0.085,-0.147L0.085,-0.676Z" style="fill:url(#_Linear5);fill-rule:nonzero;"/>
                </g>
                <g transform="matrix(48,0,0,48,132.052701,0)">
                    <path d="M0.307,0.011C0.252,0.011 0.205,-0.001 0.165,-0.025C0.125,-0.048 0.094,-0.081 0.072,-0.123C0.051,-0.165 0.04,-0.215 0.04,-0.271C0.04,-0.327 0.051,-0.376 0.072,-0.419C0.094,-0.461 0.125,-0.494 0.165,-0.517C0.205,-0.541 0.252,-0.553 0.307,-0.553C0.362,-0.553 0.409,-0.541 0.449,-0.517C0.489,-0.494 0.52,-0.461 0.541,-0.419C0.563,-0.376 0.574,-0.327 0.574,-0.271C0.574,-0.215 0.563,-0.165 0.541,-0.123C0.52,-0.081 0.489,-0.048 0.449,-0.025C0.409,-0.001 0.362,0.011 0.307,0.011ZM0.307,-0.105C0.333,-0.105 0.355,-0.112 0.372,-0.126C0.39,-0.141 0.403,-0.161 0.411,-0.186C0.42,-0.211 0.425,-0.239 0.425,-0.271C0.425,-0.303 0.42,-0.332 0.411,-0.357C0.403,-0.382 0.39,-0.402 0.372,-0.416C0.355,-0.43 0.333,-0.437 0.307,-0.437C0.281,-0.437 0.259,-0.43 0.241,-0.416C0.224,-0.402 0.211,-0.382 0.202,-0.357C0.193,-0.332 0.189,-0.303 0.189,-0.271C0.189,-0.239 0.193,-0.211 0.202,-0.186C0.211,-0.161 0.224,-0.141 0.241,-0.126C0.259,-0.112 0.281,-0.105 0.307,-0.105Z" style="fill:url(#_Linear6);fill-rule:nonzero;"/>
                </g>
                <g transform="matrix(48,0,0,48,161.49205,0)">
                    <path d="M0.066,-0L0.066,-0.728L0.355,-0.728C0.408,-0.728 0.452,-0.719 0.488,-0.703C0.524,-0.687 0.55,-0.665 0.568,-0.637C0.586,-0.609 0.595,-0.577 0.595,-0.541C0.595,-0.512 0.589,-0.487 0.578,-0.466C0.566,-0.444 0.551,-0.427 0.531,-0.413C0.511,-0.4 0.489,-0.39 0.464,-0.384L0.464,-0.377C0.491,-0.376 0.517,-0.368 0.541,-0.354C0.565,-0.339 0.585,-0.319 0.6,-0.293C0.615,-0.267 0.623,-0.236 0.623,-0.2C0.623,-0.162 0.614,-0.128 0.595,-0.098C0.576,-0.067 0.548,-0.044 0.511,-0.026C0.474,-0.009 0.428,-0 0.373,-0L0.066,-0ZM0.215,-0.123L0.344,-0.123C0.387,-0.123 0.419,-0.131 0.439,-0.148C0.46,-0.165 0.47,-0.187 0.47,-0.215C0.47,-0.235 0.465,-0.253 0.455,-0.269C0.445,-0.285 0.431,-0.297 0.412,-0.307C0.394,-0.316 0.373,-0.32 0.347,-0.32L0.215,-0.32L0.215,-0.123ZM0.215,-0.422L0.332,-0.422C0.354,-0.422 0.373,-0.426 0.39,-0.433C0.406,-0.441 0.42,-0.452 0.429,-0.466C0.439,-0.48 0.444,-0.497 0.444,-0.517C0.444,-0.543 0.435,-0.565 0.416,-0.581C0.397,-0.598 0.37,-0.606 0.335,-0.606L0.215,-0.606L0.215,-0.422Z" style="fill:url(#_Linear7);fill-rule:nonzero;"/>
                </g>
                <g transform="matrix(48,0,0,48,193.25266,0)">
                    <path d="M0.062,-0L0.062,-0.546L0.204,-0.546L0.204,-0.451L0.21,-0.451C0.22,-0.484 0.237,-0.51 0.26,-0.527C0.284,-0.545 0.311,-0.553 0.342,-0.553C0.349,-0.553 0.357,-0.553 0.366,-0.552C0.375,-0.551 0.382,-0.55 0.389,-0.548L0.389,-0.417C0.383,-0.42 0.373,-0.422 0.361,-0.423C0.348,-0.424 0.337,-0.425 0.326,-0.425C0.303,-0.425 0.283,-0.42 0.266,-0.41C0.248,-0.401 0.234,-0.387 0.224,-0.37C0.214,-0.353 0.209,-0.333 0.209,-0.311L0.209,-0L0.062,-0Z" style="fill:url(#_Linear8);fill-rule:nonzero;"/>
                </g>
                <g transform="matrix(48,0,0,48,211.631819,0)">
                    <path d="M0.307,0.011C0.252,0.011 0.205,-0.001 0.165,-0.025C0.125,-0.048 0.094,-0.081 0.072,-0.123C0.051,-0.165 0.04,-0.215 0.04,-0.271C0.04,-0.327 0.051,-0.376 0.072,-0.419C0.094,-0.461 0.125,-0.494 0.165,-0.517C0.205,-0.541 0.252,-0.553 0.307,-0.553C0.362,-0.553 0.409,-0.541 0.449,-0.517C0.489,-0.494 0.52,-0.461 0.541,-0.419C0.563,-0.376 0.574,-0.327 0.574,-0.271C0.574,-0.215 0.563,-0.165 0.541,-0.123C0.52,-0.081 0.489,-0.048 0.449,-0.025C0.409,-0.001 0.362,0.011 0.307,0.011ZM0.307,-0.105C0.333,-0.105 0.355,-0.112 0.372,-0.126C0.39,-0.141 0.403,-0.161 0.411,-0.186C0.42,-0.211 0.425,-0.239 0.425,-0.271C0.425,-0.303 0.42,-0.332 0.411,-0.357C0.403,-0.382 0.39,-0.402 0.372,-0.416C0.355,-0.43 0.333,-0.437 0.307,-0.437C0.281,-0.437 0.259,-0.43 0.241,-0.416C0.224,-0.402 0.211,-0.382 0.202,-0.357C0.193,-0.332 0.189,-0.303 0.189,-0.271C0.189,-0.239 0.193,-0.211 0.202,-0.186C0.211,-0.161 0.224,-0.141 0.241,-0.126C0.259,-0.112 0.281,-0.105 0.307,-0.105Z" style="fill:url(#_Linear9);fill-rule:nonzero;"/>
                </g>
            </g>
            <g transform="matrix(0.217363,0.220971,-0.217363,0.220971,39.332729,-158.222228)">
                <path d="M30,-22L30,22C30,26.415 26.415,30 22,30L-22,30C-26.415,30 -30,26.415 -30,22L-30,-22C-30,-26.415 -26.415,-30 -22,-30L22,-30C26.415,-30 30,-26.415 30,-22Z" style="fill:url(#_Linear10);"/>
            </g>
            <g transform="matrix(0.307398,0,0,0.3125,39.39577,-153.723937)">
                <text x="-15.264px" y="0px" style="font-family:'Helvetica-Bold', 'Helvetica';font-weight:700;font-size:40px;fill:white;">Ƀ</text>
            </g>
        </g>
    </g>
    <defs>
        <linearGradient id="_Linear1" x1="0" y1="0" x2="1" y2="0" gradientUnits="userSpaceOnUse" gradientTransform="matrix(4.944336,0.719727,-0.719727,4.944336,0,-0.719727)"><stop offset="0" style="stop-color:rgb(0,212,255);stop-opacity:1"/><stop offset="1" style="stop-color:rgb(0,102,255);stop-opacity:1"/></linearGradient>
        <linearGradient id="_Linear2" x1="0" y1="0" x2="1" y2="0" gradientUnits="userSpaceOnUse" gradientTransform="matrix(4.944336,0.719727,-0.719727,4.944336,-0.739697,-0.719727)"><stop offset="0" style="stop-color:rgb(0,212,255);stop-opacity:1"/><stop offset="1" style="stop-color:rgb(0,102,255);stop-opacity:1"/></linearGradient>
        <linearGradient id="_Linear3" x1="0" y1="0" x2="1" y2="0" gradientUnits="userSpaceOnUse" gradientTransform="matrix(4.944336,0.719727,-0.719727,4.944336,-1.162635,-0.719727)"><stop offset="0" style="stop-color:rgb(0,212,255);stop-opacity:1"/><stop offset="1" style="stop-color:rgb(0,102,255);stop-opacity:1"/></linearGradient>
        <linearGradient id="_Linear4" x1="0" y1="0" x2="1" y2="0" gradientUnits="userSpaceOnUse" gradientTransform="matrix(4.944336,0.719727,-0.719727,4.944336,-1.76446,-0.719727)"><stop offset="0" style="stop-color:rgb(0,212,255);stop-opacity:1"/><stop offset="1" style="stop-color:rgb(0,102,255);stop-opacity:1"/></linearGradient>
        <linearGradient id="_Linear5" x1="0" y1="0" x2="1" y2="0" gradientUnits="userSpaceOnUse" gradientTransform="matrix(4.944336,0.719727,-0.719727,4.944336,-2.394693,-0.719727)"><stop offset="0" style="stop-color:rgb(0,212,255);stop-opacity:1"/><stop offset="1" style="stop-color:rgb(0,102,255);stop-opacity:1"/></linearGradient>
        <linearGradient id="_Linear6" x1="0" y1="0" x2="1" y2="0" gradientUnits="userSpaceOnUse" gradientTransform="matrix(4.944336,0.719727,-0.719727,4.944336,-2.751098,-0.719727)"><stop offset="0" style="stop-color:rgb(0,212,255);stop-opacity:1"/><stop offset="1" style="stop-color:rgb(0,102,255);stop-opacity:1"/></linearGradient>
        <linearGradient id="_Linear7" x1="0" y1="0" x2="1" y2="0" gradientUnits="userSpaceOnUse" gradientTransform="matrix(4.944336,0.719727,-0.719727,4.944336,-3.364418,-0.719727)"><stop offset="0" style="stop-color:rgb(0,212,255);stop-opacity:1"/><stop offset="1" style="stop-color:rgb(0,102,255);stop-opacity:1"/></linearGradient>
        <linearGradient id="_Linear8" x1="0" y1="0" x2="1" y2="0" gradientUnits="userSpaceOnUse" gradientTransform="matrix(4.944336,0.719727,-0.719727,4.944336,-4.026097,-0.719727)"><stop offset="0" style="stop-color:rgb(0,212,255);stop-opacity:1"/><stop offset="1" style="stop-color:rgb(0,102,255);stop-opacity:1"/></linearGradient>
        <linearGradient id="_Linear9" x1="0" y1="0" x2="1" y2="0" gradientUnits="userSpaceOnUse" gradientTransform="matrix(4.944336,0.719727,-0.719727,4.944336,-4.408996,-0.719727)"><stop offset="0" style="stop-color:rgb(0,212,255);stop-opacity:1"/><stop offset="1" style="stop-color:rgb(0,102,255);stop-opacity:1"/></linearGradient>
        <linearGradient id="_Linear10" x1="0" y1="0" x2="1" y2="0" gradientUnits="userSpaceOnUse" gradientTransform="matrix(60,60,-60,60,-30,-30)"><stop offset="0" style="stop-color:rgb(0,212,255);stop-opacity:1"/><stop offset="1" style="stop-color:rgb(0,102,255);stop-opacity:1"/></linearGradient>
    </defs>
</svg>
